<svg width="16" height="16" viewBox="0 0 16 16" fill="none" xmlns="http://www.w3.org/2000/svg">
<path fill-rule="evenodd" clip-rule="evenodd" d="M11.9771 7.93852C11.9765 7.9626 11.9759 7.98669 11.9753 8.01078L1 8.00292C0.25781 8.00099 0 8.21386 0 9C0 10.5 0.612314 12 1.67287 12.9773C2.77945 13.997 4.53417 14 6 14C8 14 10 13.3156 11.4536 11.8497C12 11.3228 12.7757 10.2103 13 9C14 9 15 9 16 8C16 8 15 7 14 7C14 6 13 5 13 5C12.0238 5.97616 12.0006 6.95233 11.9771 7.93852ZM5 12C5.55228 12 6 11.5523 6 11C6 10.4477 5.55228 10 5 10C4.44772 10 4 10.4477 4 11C4 11.5523 4.44772 12 5 12Z" fill="#DEDDDA"/>
<path fill-rule="evenodd" clip-rule="evenodd" d="M2 5H4V7H2V5Z" fill="#DEDDDA"/>
<path fill-rule="evenodd" clip-rule="evenodd" d="M5 5H7V7H5V5Z" fill="#DEDDDA"/>
<path fill-rule="evenodd" clip-rule="evenodd" d="M8 5H10V7H8V5Z" fill="#DEDDDA"/>
<path fill-rule="evenodd" clip-rule="evenodd" d="M7 2H9V4H7V2Z" fill="#DEDDDA"/>
</svg>
